<?xml version="1.0" encoding="utf-8"?>
<!-- Generator: Adobe Illustrator 24.0.1, SVG Export Plug-In . SVG Version: 6.00 Build 0)  -->
<svg version="1.1" id="Camada_1" xmlns="http://www.w3.org/2000/svg" xmlns:xlink="http://www.w3.org/1999/xlink" x="0px" y="0px"
	 viewBox="0 0 56.1 12.9" style="enable-background:new 0 0 56.1 12.9;" xml:space="preserve">
<style type="text/css">
	.st0{fill-rule:evenodd;clip-rule:evenodd;fill:#272425;}
	.st1{fill:#272425;}
</style>
<g>
	<path class="st0" d="M18.8,7.3c-0.2,1.1,0.1,2.3,1.1,3c0.6,0.7,2.6,1.4,4.5,0.9c0.8-0.2,1.9-0.7,2.3-1.4c0.4-0.6,0.6-1.5,0.1-2.3
		c-0.4-0.6-0.5-0.6-0.7-0.8c0,0-0.4-0.2-0.7-0.3c0.8,0.1,1.2-0.1,1.6-0.5c0.3-0.3,0.6-1.6-1.3-1.7c0.5,0.5,0.2,0.9,0,1.2
		c-0.7,0.7-1.7,0.3-3.1,0.9c-1.4,0.6-0.4,2.3,1,1.4c0.4-0.5,0-0.8-0.2-0.9c0.9-0.2,1.6,0.2,2,0.8c0.6,0.7,0.4,2.1-0.6,2.6
		c-0.3,0.3-1.4,0.7-2.6,0.3c-0.8-0.5-1.9-1.3-1.8-2.7c0-2.7,2.9-3,2.8-3.4c0.2-0.2-0.9-0.1-1.2-0.8c-0.2-0.4-0.1-0.9,0.2-1.2
		c0.2-0.2,0.7-0.4,1.1-0.2c-0.4,0.6-0.1,1.3,0.8,1.2c0.6,0,0.9-0.8,0.4-1.3c-0.6-0.5-1.3-0.9-2.5-0.5c-0.6,0.2-1.1,0.8-1.2,1.4
		c0,0.7,0.4,1.2,0.9,1.4C20.5,4.9,19.1,5.7,18.8,7.3"/>
	<path class="st1" d="M51.3,11.1c-0.3,0.1-0.6,0.1-0.9,0.1c-0.5,0-0.7-0.2-0.7-0.5c0-0.2,0.1-0.7,0.3-1.4c0.4-1.6,0.6-2.8,0.6-3.4
		c0-0.1,0-0.3-0.1-0.4c0.4-0.1,0.7-0.2,1-0.2c0.4,0,0.7,0.2,0.7,0.5c0,0.2-0.1,0.8-0.3,1.7c0.9-1.6,1.6-2.3,2.2-2.3
		c0.3,0,0.5,0.1,0.5,0.4c0,0.6-0.3,1.1-0.8,1.7C53.5,7.1,53.4,7,53.3,7c-0.4,0-0.8,0.5-1.3,1.5c-0.5,1-0.7,1.7-0.7,2.2
		C51.2,10.8,51.3,10.9,51.3,11.1 M46.4,8c1.1,0,1.7-0.5,1.7-1.5c0-0.4-0.1-0.6-0.4-0.6C47.1,5.9,46.7,6.6,46.4,8z M46.3,8.7
		c0,0.2,0,0.4,0,0.6c0,0.7,0.3,1.1,0.9,1.1c0.5,0,1.2-0.3,1.9-0.8c0.1,0.2,0.1,0.3,0.1,0.4c0,0.4-0.3,0.7-0.8,0.9
		c-0.6,0.3-1.1,0.4-1.7,0.4c-1.4,0-2-0.6-2-1.8c0-1.1,0.4-2.1,1.1-3c0.7-0.9,1.6-1.4,2.6-1.4c0.8,0,1.3,0.4,1.3,1.1
		c0,0.8-0.3,1.4-0.9,1.8C48,8.4,47.2,8.7,46.3,8.7z M40.7,5.1c0.3,0.2,0.9,0.3,1.8,0.3c0.8,0,1.5-0.1,2.1-0.2c0,0.4-0.1,0.7-0.3,0.9
		c-1.4,1.6-2.5,2.9-3.2,3.9c0.1,0,0.3,0,0.6,0c0.2,0,0.4,0,0.5,0c0,0,0.1,0,0.2,0c0.1,0,0.2,0,0.3,0c0.7,0,1.1,0.2,1.1,0.5
		c0,0.2-0.1,0.5-0.2,0.8c-0.4-0.2-1.2-0.3-2.2-0.3c-0.8,0-1.4,0.1-2,0.2c0-0.2-0.1-0.3-0.1-0.4c0-0.3,0.2-0.7,0.6-1.2
		c0.6-0.7,1.5-1.9,2.6-3.4c-0.5,0-0.9,0.1-1.1,0.1c-0.7,0-1.1-0.2-1.1-0.5C40.3,5.7,40.5,5.4,40.7,5.1z M37.7,6.7
		C37.4,6.3,37,6,36.7,6c-0.4,0-0.7,0.4-1,1.2c-0.3,0.8-0.4,1.5-0.4,2.1c0,0.4,0.1,0.6,0.3,0.6c0.2,0,0.5-0.4,1-1.2
		C37,8,37.4,7.3,37.7,6.7z M37.3,8.9c-0.9,1.6-1.7,2.4-2.4,2.4c-0.8,0-1.1-0.5-1.1-1.6c0-1,0.3-2.1,0.9-3.1c0.6-1,1.3-1.5,2.2-1.5
		c0.4,0,0.8,0.1,1.1,0.3c0.2-0.2,0.4-0.3,0.7-0.3c0.3,0,0.7,0.1,1,0.2c-0.2,0.4-0.4,1.1-0.6,2.1c-0.2,1-0.3,1.7-0.3,2.3
		c0,0.4,0.1,0.8,0.2,1.1c-0.3,0.2-0.5,0.3-0.9,0.3c-0.6,0-0.9-0.3-0.9-1C37.1,9.9,37.2,9.4,37.3,8.9z M30.5,10
		c0.4,0.1,0.7,0.1,1,0.1c0.6,0,1.3-0.1,1.8-0.4v0c0,0.6-0.2,1-0.6,1.2c-0.4,0.2-1,0.3-1.8,0.3c-0.1,0-0.3,0-0.5,0
		c-0.2,0-0.4,0-0.5,0c-0.1,0-0.1,0-0.2,0c-0.1,0-0.2,0-0.3,0c-0.4,0-0.6-0.1-0.6-0.4c0-0.2,0-0.5,0.1-0.8c0.7-2.6,1-4.4,1-5.4
		c0-0.2-0.1-0.4-0.2-0.6c0.4-0.3,0.9-0.4,1.3-0.4c0.4,0,0.5,0.1,0.5,0.4c0,0.2-0.1,0.6-0.2,1.2l-0.7,3.7C30.6,9.4,30.5,9.7,30.5,10z
		 M14.1,11.1c-0.3,0.1-0.6,0.1-0.9,0.1c-0.5,0-0.7-0.2-0.7-0.5c0-0.2,0.1-0.7,0.3-1.4c0.4-1.6,0.6-2.8,0.6-3.4c0-0.1,0-0.3-0.1-0.4
		c0.4-0.1,0.7-0.2,1-0.2c0.4,0,0.7,0.2,0.7,0.5c0,0.2-0.1,0.8-0.3,1.7c0.9-1.6,1.6-2.3,2.2-2.3c0.3,0,0.5,0.1,0.5,0.4
		c0,0.6-0.3,1.1-0.8,1.7C16.3,7.1,16.2,7,16.1,7c-0.4,0-0.8,0.5-1.3,1.5c-0.5,1-0.7,1.7-0.7,2.2C14,10.8,14.1,10.9,14.1,11.1z
		 M10.6,6.7C10.3,6.3,9.9,6,9.6,6c-0.4,0-0.7,0.4-1,1.2C8.4,8,8.2,8.7,8.2,9.3c0,0.4,0.1,0.6,0.3,0.6c0.2,0,0.5-0.4,1-1.2
		C9.9,8,10.3,7.3,10.6,6.7z M10.2,8.9c-0.9,1.6-1.7,2.4-2.4,2.4c-0.8,0-1.1-0.5-1.1-1.6c0-1,0.3-2.1,0.9-3.1c0.6-1,1.3-1.5,2.2-1.5
		c0.4,0,0.8,0.1,1.1,0.3c0.2-0.2,0.4-0.3,0.7-0.3c0.3,0,0.7,0.1,1,0.2c-0.2,0.4-0.4,1.1-0.6,2.1c-0.2,1-0.3,1.7-0.3,2.3
		c0,0.4,0.1,0.8,0.2,1.1c-0.3,0.2-0.5,0.3-0.9,0.3c-0.6,0-0.9-0.3-0.9-1C10,9.9,10.1,9.4,10.2,8.9z M3.4,10c0.4,0.1,0.7,0.1,1,0.1
		c0.6,0,1.3-0.1,1.8-0.4v0c0,0.6-0.2,1-0.6,1.2c-0.4,0.2-1,0.3-1.8,0.3c-0.1,0-0.3,0-0.5,0c-0.2,0-0.4,0-0.5,0c-0.1,0-0.1,0-0.2,0
		c-0.1,0-0.2,0-0.3,0c-0.4,0-0.6-0.1-0.6-0.4c0-0.2,0-0.5,0.1-0.8c0.7-2.6,1-4.4,1-5.4c0-0.2-0.1-0.4-0.2-0.6C3.1,3.8,3.6,3.7,4,3.7
		c0.4,0,0.5,0.1,0.5,0.4c0,0.2-0.1,0.6-0.2,1.2L3.6,8.9C3.5,9.4,3.4,9.7,3.4,10z"/>
</g>
</svg>
