<?xml version="1.0" encoding="utf-8"?>
<!-- Generator: Adobe Illustrator 27.3.1, SVG Export Plug-In . SVG Version: 6.00 Build 0)  -->
<svg version="1.1" xmlns="http://www.w3.org/2000/svg" xmlns:xlink="http://www.w3.org/1999/xlink" x="0px" y="0px"
	 viewBox="0 0 250 150" style="enable-background:new 0 0 250 150;" xml:space="preserve">
<style type="text/css">
	.st0{display:none;}
	.st1{display:inline;}
	.st2{display:inline;fill:#0A0A0A;}
	.st3{fill:#00D412;}
	.st4{fill:#FF8310;}
	.st5{display:inline;fill:#00D412;}
</style>
<g id="Layer_1" class="st0">
	<g class="st1">
		<g>
			<path d="M36.84,134.93c5.45-14,8.2-29.01,12-43.5c1.3-0.74,1.95-1.12,3.27-1.87c5.77,12.92,9.13,26.86,13.47,40.29
				c-1.69,0.3-2.54,0.45-4.22,0.75c-1.58-4.2-2.37-6.82-3.95-12.02c-5.32,1.76-7.94,2.63-13.05,4.31
				c-1.41,5.39-2.12,7.83-3.55,11.34C39.22,134.52,38.43,134.65,36.84,134.93z M50.52,96.33c-1.32,5.81-2.57,11.74-3.77,16.82
				c-0.44,1.88-0.66,2.81-1.1,4.63c4.06-1.55,6.13-2.35,10.34-3.97c-0.5-1.64-0.75-2.46-1.25-4.07c-1.35-4.45-2.73-9.2-4.12-13.46
				C50.58,96.3,50.56,96.31,50.52,96.33z"/>
			<path d="M70.26,129.02c-0.07-17.46-0.11-34.91-0.21-52.37c1.55-0.89,2.32-1.33,3.87-2.23c0.03,17.98,0.04,35.96,0.06,53.93
				C72.49,128.62,71.75,128.75,70.26,129.02z"/>
			<path d="M90.52,126.39c-1.18,0.2-2.25,0.18-3.21-0.06c-0.96-0.24-1.77-0.65-2.48-1.24c-0.71-0.6-1.31-1.36-1.8-2.32
				s-0.88-2.05-1.17-3.3c-0.22-0.93-0.38-1.99-0.47-3.19c-0.09-1.2-0.14-2.54-0.13-4.04c0.04-10.28,0.06-16.26,0.1-25.83
				c1.54-0.78,2.3-1.17,3.84-1.95c-0.07,9.79-0.1,15.93-0.17,26.54c-0.02,2.4,0.14,4.3,0.47,5.75c0.37,1.64,0.99,2.82,1.84,3.59
				s1.95,1.01,3.28,0.72c1.41-0.31,2.55-1.09,3.42-2.42c0.87-1.33,1.51-3.06,1.89-5.2c0.29-1.64,0.45-3.66,0.48-6.06
				c0.1-9.6,0.21-19.19,0.32-28.79c1.51-0.77,2.26-1.15,3.75-1.91c-0.13,9.88-0.24,19.75-0.36,29.63c-0.02,1.65-0.08,3.17-0.19,4.59
				c-0.11,1.41-0.25,2.71-0.46,3.88c-0.3,1.65-0.72,3.16-1.24,4.53c-0.52,1.37-1.15,2.54-1.89,3.53c-0.75,0.99-1.61,1.77-2.57,2.38
				C92.82,125.8,91.74,126.19,90.52,126.39z"/>
			<path d="M115.87,67.58c0.91-0.45,1.73-0.6,2.4-0.45c0.68,0.15,1.25,0.49,1.73,1.03c0.48,0.54,0.86,1.13,1.14,1.78
				c0.28,0.65,0.47,1.19,0.57,1.62c0.03-0.02,0.05-0.03,0.09-0.04c0.29-2.51,0.43-3.74,0.71-6.1c1.01-0.51,1.51-0.77,2.49-1.27
				c0,19.39,0,38.78,0,58.17c0,3.62-0.27,6.44-0.83,8.6c-0.56,2.15-1.35,3.67-2.37,4.75s-2.25,1.74-3.68,2.15
				c-1.43,0.41-3,0.58-4.72,0.58c-1.46,0-2.75-0.11-3.89-0.32c-1.14-0.22-2.03-0.48-2.67-0.81c0.01-1.15,0.02-1.82,0.03-3.36
				c0.53,0.24,1.04,0.45,1.53,0.6c0.49,0.16,1,0.29,1.53,0.39c0.53,0.1,1.06,0.17,1.61,0.2c0.55,0.04,1.16,0.04,1.82,0.02
				c2.59-0.09,4.58-0.86,5.98-2.78c1.39-1.92,2.1-5.11,2.12-10.32c0.01-2.48,0.02-3.8,0.03-6.53c-0.03,0.01-0.04,0.01-0.07,0.01
				c-0.78,2.16-1.69,3.75-2.74,4.88c-1.04,1.12-2.24,1.75-3.58,1.97c-0.62,0.1-1.28,0.07-2-0.1c-0.71-0.16-1.42-0.52-2.13-1.07
				s-1.39-1.32-2.03-2.34c-0.64-1.02-1.21-2.35-1.68-4.03c-0.48-1.68-0.86-3.74-1.13-6.22c-0.28-2.48-0.39-5.45-0.35-8.92
				c0.06-4.82,0.39-9.12,1-12.84c0.61-3.73,1.39-6.88,2.33-9.51c0.94-2.63,2.01-4.73,3.18-6.35
				C113.46,69.33,114.66,68.18,115.87,67.58z M109.59,97.61c-0.05,4.17,0.13,7.45,0.52,9.9c0.39,2.45,0.9,4.26,1.53,5.49
				c0.63,1.23,1.32,2,2.08,2.34c0.75,0.34,1.47,0.44,2.15,0.29c1.11-0.23,2.15-0.95,3.12-2.21c0.97-1.26,1.82-2.91,2.55-5
				c0.04-9.83,0.07-19.65,0.11-29.48c-0.19-0.61-0.45-1.29-0.78-2.01c-0.33-0.72-0.72-1.34-1.17-1.85
				c-0.44-0.51-0.96-0.88-1.53-1.09c-0.58-0.21-1.21-0.15-1.9,0.18c-1.04,0.5-1.96,1.43-2.77,2.78c-0.81,1.35-1.5,3.03-2.07,5.05
				c-0.57,2.02-1,4.34-1.31,6.99C109.79,91.66,109.62,94.53,109.59,97.61z"/>
		</g>
	</g>
	<g class="st1">
		<g>
			<path d="M138.05,137.63c-1.4,0-2.09,0-3.49,0c0.1-25.36,0.11-50.73,0.17-76.09c-3.9-2.07-5.84-3.1-9.73-5.16
				c0-3.46,0-5.01,0-7.56c9.22,5.22,13.85,7.85,23.07,13.08c-0.02,2.32-0.03,3.69-0.05,6.68c-3.89-2.07-5.84-3.1-9.74-5.17
				C138.21,88.16,138.18,112.89,138.05,137.63z"/>
			<path d="M156.96,138.39c-1.05,0-2-0.15-2.84-0.47s-1.57-0.79-2.2-1.46c-0.63-0.67-1.16-1.52-1.59-2.63
				c-0.43-1.11-0.77-2.41-1.02-3.95c-0.19-1.15-0.33-2.48-0.4-4.02c-0.08-1.53-0.11-3.28-0.1-5.27c0.07-12.54,0.14-25.07,0.21-37.61
				c1.34,0.57,2.02,0.86,3.36,1.43c-0.08,12.16-0.15,24.31-0.23,36.47c-0.02,3,0.11,5.32,0.4,7.08c0.33,2,0.87,3.42,1.62,4.42
				c0.76,1,1.73,1.45,2.91,1.47c1.26,0.02,2.27-0.45,3.05-1.48c0.78-1.03,1.35-2.48,1.69-4.46c0.26-1.52,0.4-3.48,0.43-5.99
				c0.1-11.06,0.2-22.12,0.3-33.18c1.34,0.57,2.01,0.85,3.34,1.42c-0.11,10.74-0.21,21.47-0.32,32.21
				c-0.02,1.62-0.07,3.07-0.17,4.36c-0.09,1.3-0.23,2.45-0.42,3.44c-0.27,1.4-0.64,2.62-1.11,3.68c-0.46,1.05-1.03,1.89-1.7,2.56
				c-0.67,0.67-1.44,1.15-2.3,1.48C159.02,138.23,158.04,138.39,156.96,138.39z"/>
			<path d="M170.68,118.07c0.04-3.36,0.21-6.46,0.52-9.11c0.31-2.65,0.7-4.92,1.18-6.78c0.48-1.85,1.03-3.31,1.67-4.39
				c0.63-1.07,1.28-1.85,1.95-2.36c0.67-0.51,1.34-0.77,2.02-0.81c0.68-0.04,1.32,0.08,1.92,0.34c1.24,0.54,2.31,1.45,3.21,2.7
				c0.9,1.25,1.7,2.84,2.4,4.78c0.03,0.01,0.04,0.01,0.06,0.02c0.14-10.44,0.2-15.76,0.34-22.48c1.31,0.76,1.97,1.14,3.28,1.9
				c-0.34,18.59-0.49,37.18-0.8,55.76c-1,0-1.5,0-2.5,0c-0.25-1.26-0.37-1.94-0.62-3.38c-0.03,0-0.05,0-0.09,0
				c-0.27,0.52-0.57,1.03-0.93,1.53c-0.35,0.51-0.76,0.95-1.23,1.33c-0.47,0.39-1.01,0.69-1.62,0.91c-0.61,0.22-1.32,0.33-2.11,0.33
				c-1.11,0-2.2-0.24-3.26-0.78c-1.06-0.53-1.99-1.41-2.81-2.79c-0.81-1.38-1.46-3.3-1.93-5.98
				C170.84,126.15,170.63,122.59,170.68,118.07z M174.15,118.49c-0.03,2.69,0.07,5.04,0.31,7.05c0.24,2.01,0.6,3.62,1.08,4.89
				c0.48,1.27,1.08,2.18,1.8,2.8c0.72,0.63,1.55,0.92,2.49,0.94c0.7,0.01,1.34-0.13,1.91-0.43c0.58-0.3,1.09-0.68,1.55-1.15
				c0.46-0.47,0.85-0.98,1.18-1.53c0.33-0.55,0.59-1.06,0.78-1.54c0.12-7.61,0.17-12.38,0.29-21.35c-0.66-1.68-1.44-3.13-2.32-4.35
				c-0.88-1.22-1.84-2.04-2.89-2.42c-0.63-0.23-1.29-0.21-1.99,0.08c-0.7,0.29-1.35,1.05-1.96,2.3c-0.61,1.26-1.12,3.08-1.54,5.46
				C174.42,111.63,174.2,114.79,174.15,118.49z"/>
			<path d="M213.16,123.94c0,2.16-0.22,4.11-0.68,5.87c-0.45,1.77-1.1,3.29-1.93,4.57c-0.83,1.28-1.85,2.27-3.03,2.97
				c-1.19,0.7-2.52,1.04-3.99,1.04c-1.51,0-2.86-0.34-4.04-1.05c-1.18-0.71-2.18-1.72-2.99-3.14c-0.81-1.41-1.42-3.19-1.83-5.4
				c-0.41-2.21-0.6-4.8-0.56-7.7c0.04-2.93,0.3-5.62,0.78-7.93c0.48-2.31,1.14-4.18,1.99-5.56c0.84-1.39,1.85-2.25,3.03-2.63
				c1.18-0.38,2.48-0.22,3.91,0.4c1.46,0.63,2.77,1.6,3.92,2.85c1.16,1.25,2.13,2.69,2.93,4.31c0.8,1.62,1.41,3.38,1.84,5.29
				C212.94,119.74,213.16,121.75,213.16,123.94z M209.75,123.44c0.01-1.8-0.14-3.44-0.43-4.93c-0.29-1.49-0.71-2.82-1.24-4
				c-0.53-1.17-1.16-2.16-1.9-2.96c-0.73-0.79-1.54-1.36-2.42-1.68c-0.88-0.32-1.69-0.33-2.44,0c-0.75,0.33-1.4,0.98-1.95,1.99
				c-0.55,1.01-0.99,2.34-1.31,3.99c-0.32,1.65-0.5,3.59-0.52,5.77c-0.03,2.15,0.1,4.05,0.39,5.68c0.28,1.63,0.7,2.96,1.24,4.01
				c0.54,1.05,1.19,1.83,1.93,2.35c0.75,0.53,1.57,0.78,2.46,0.79c0.9,0.01,1.72-0.23,2.47-0.72c0.75-0.48,1.4-1.2,1.95-2.13
				c0.55-0.94,0.98-2.09,1.29-3.46C209.59,126.78,209.75,125.22,209.75,123.44z"/>
		</g>
	</g>
	<polygon class="st2" points="103.72,57.31 15.56,108.21 36.84,62.51 125,11.61 	"/>
	<polygon class="st2" points="146.28,57.31 234.44,108.21 213.16,62.51 125,11.61 	"/>
</g>
<g id="Layer_1_copy">
	<g>
		<g>
			<path class="st3" d="M36.84,134.93c5.45-14,8.2-29.01,12-43.5c1.3-0.74,1.95-1.12,3.27-1.87c5.77,12.92,9.13,26.86,13.47,40.29
				c-1.69,0.3-2.54,0.45-4.22,0.75c-1.58-4.2-2.37-6.82-3.95-12.02c-5.32,1.76-7.94,2.63-13.05,4.31
				c-1.41,5.39-2.12,7.83-3.55,11.34C39.22,134.52,38.43,134.65,36.84,134.93z M50.52,96.33c-1.32,5.81-2.57,11.74-3.77,16.82
				c-0.44,1.88-0.66,2.81-1.1,4.63c4.06-1.55,6.13-2.35,10.34-3.97c-0.5-1.64-0.75-2.46-1.25-4.07c-1.35-4.45-2.73-9.2-4.12-13.46
				C50.58,96.3,50.56,96.31,50.52,96.33z"/>
			<path class="st3" d="M70.26,129.02c-0.07-17.46-0.11-34.91-0.21-52.37c1.55-0.89,2.32-1.33,3.87-2.23
				c0.03,17.98,0.04,35.96,0.06,53.93C72.49,128.62,71.75,128.75,70.26,129.02z"/>
			<path class="st3" d="M90.52,126.39c-1.18,0.2-2.25,0.18-3.21-0.06c-0.96-0.24-1.77-0.65-2.48-1.24c-0.71-0.6-1.31-1.36-1.8-2.32
				c-0.49-0.96-0.88-2.05-1.17-3.3c-0.22-0.93-0.38-1.99-0.47-3.19c-0.09-1.2-0.14-2.54-0.13-4.04c0.04-10.28,0.06-16.26,0.1-25.83
				c1.54-0.78,2.3-1.17,3.83-1.95c-0.07,9.79-0.1,15.93-0.17,26.54c-0.02,2.4,0.14,4.3,0.47,5.75c0.37,1.64,0.99,2.82,1.84,3.59
				c0.85,0.77,1.95,1.01,3.28,0.72c1.41-0.31,2.55-1.09,3.42-2.42c0.87-1.33,1.51-3.06,1.89-5.2c0.29-1.64,0.45-3.66,0.48-6.06
				c0.1-9.6,0.21-19.19,0.32-28.79c1.51-0.77,2.26-1.15,3.75-1.91c-0.13,9.88-0.24,19.75-0.36,29.63c-0.02,1.65-0.08,3.17-0.19,4.59
				c-0.11,1.41-0.25,2.71-0.46,3.88c-0.3,1.65-0.72,3.16-1.24,4.53c-0.52,1.37-1.15,2.54-1.89,3.53c-0.75,0.99-1.61,1.77-2.57,2.38
				C92.82,125.8,91.74,126.19,90.52,126.39z"/>
			<path class="st3" d="M115.87,67.58c0.91-0.45,1.73-0.6,2.4-0.45c0.68,0.15,1.25,0.49,1.73,1.03c0.48,0.54,0.86,1.13,1.14,1.78
				c0.28,0.65,0.47,1.19,0.57,1.62c0.03-0.02,0.05-0.03,0.09-0.04c0.29-2.51,0.43-3.74,0.71-6.1c1.01-0.51,1.51-0.77,2.49-1.27
				c0,19.39,0,38.78,0,58.17c0,3.62-0.27,6.44-0.83,8.6c-0.56,2.15-1.35,3.67-2.37,4.75c-1.02,1.08-2.25,1.74-3.68,2.15
				c-1.43,0.41-3,0.58-4.72,0.58c-1.46,0-2.75-0.11-3.89-0.32c-1.14-0.22-2.03-0.48-2.67-0.81c0.01-1.15,0.02-1.82,0.03-3.36
				c0.53,0.24,1.04,0.45,1.53,0.6c0.49,0.16,1,0.29,1.53,0.39c0.53,0.1,1.06,0.17,1.61,0.2c0.55,0.04,1.16,0.04,1.82,0.02
				c2.59-0.09,4.58-0.86,5.98-2.78c1.39-1.92,2.1-5.11,2.12-10.32c0.01-2.48,0.02-3.8,0.03-6.53c-0.03,0.01-0.04,0.01-0.07,0.01
				c-0.78,2.16-1.69,3.75-2.74,4.88c-1.04,1.12-2.24,1.75-3.58,1.97c-0.62,0.1-1.28,0.07-2-0.1c-0.71-0.16-1.42-0.52-2.13-1.07
				c-0.71-0.55-1.39-1.32-2.03-2.34s-1.21-2.35-1.68-4.03c-0.48-1.68-0.86-3.74-1.13-6.22c-0.28-2.48-0.39-5.45-0.35-8.92
				c0.06-4.82,0.39-9.12,1-12.84c0.61-3.73,1.39-6.88,2.33-9.51c0.94-2.63,2.01-4.73,3.18-6.35
				C113.46,69.33,114.66,68.18,115.87,67.58z M109.59,97.61c-0.05,4.17,0.13,7.45,0.52,9.9s0.9,4.26,1.53,5.49
				c0.63,1.23,1.32,2,2.08,2.34c0.75,0.34,1.47,0.44,2.15,0.29c1.11-0.23,2.15-0.95,3.12-2.21c0.97-1.26,1.82-2.91,2.55-5
				c0.04-9.83,0.07-19.65,0.11-29.48c-0.19-0.61-0.45-1.29-0.78-2.01c-0.33-0.72-0.72-1.34-1.17-1.85
				c-0.44-0.51-0.96-0.88-1.53-1.09c-0.58-0.21-1.21-0.15-1.9,0.18c-1.04,0.5-1.96,1.43-2.77,2.78c-0.81,1.35-1.5,3.03-2.07,5.05
				c-0.57,2.02-1,4.34-1.31,6.99C109.79,91.66,109.62,94.53,109.59,97.61z"/>
		</g>
	</g>
	<g>
		<g>
			<path class="st3" d="M138.05,137.63c-1.4,0-2.09,0-3.49,0c0.1-25.36,0.11-50.73,0.17-76.09c-3.9-2.07-5.84-3.1-9.73-5.16
				c0-3.46,0-5.01,0-7.56c9.22,5.22,13.85,7.85,23.07,13.08c-0.02,2.32-0.03,3.69-0.05,6.68c-3.89-2.07-5.84-3.1-9.74-5.17
				C138.21,88.16,138.18,112.89,138.05,137.63z"/>
			<path class="st3" d="M156.96,138.39c-1.05,0-2-0.15-2.84-0.47s-1.57-0.79-2.2-1.46c-0.63-0.67-1.16-1.52-1.59-2.63
				c-0.43-1.11-0.77-2.41-1.02-3.95c-0.19-1.15-0.33-2.48-0.4-4.02c-0.08-1.53-0.11-3.28-0.1-5.27c0.07-12.54,0.14-25.07,0.21-37.61
				c1.34,0.57,2.02,0.86,3.36,1.43c-0.08,12.16-0.15,24.31-0.23,36.47c-0.02,3,0.11,5.32,0.4,7.08c0.33,2,0.87,3.42,1.62,4.42
				c0.76,1,1.73,1.45,2.91,1.47c1.26,0.02,2.27-0.45,3.05-1.48c0.78-1.03,1.35-2.48,1.69-4.46c0.26-1.52,0.4-3.48,0.43-5.99
				c0.1-11.06,0.2-22.12,0.3-33.18c1.34,0.57,2.01,0.85,3.34,1.42c-0.11,10.74-0.21,21.47-0.32,32.21
				c-0.02,1.62-0.07,3.07-0.17,4.36c-0.09,1.3-0.23,2.45-0.42,3.44c-0.27,1.4-0.64,2.62-1.11,3.68c-0.46,1.05-1.03,1.89-1.7,2.56
				c-0.67,0.67-1.44,1.15-2.3,1.48C159.02,138.23,158.04,138.39,156.96,138.39z"/>
			<path class="st3" d="M170.68,118.07c0.04-3.36,0.21-6.46,0.52-9.11c0.31-2.65,0.7-4.92,1.18-6.78c0.48-1.85,1.03-3.31,1.67-4.39
				c0.63-1.07,1.28-1.85,1.95-2.36c0.67-0.51,1.34-0.77,2.02-0.81c0.68-0.04,1.32,0.08,1.92,0.34c1.24,0.54,2.31,1.45,3.21,2.7
				c0.9,1.25,1.7,2.84,2.4,4.78c0.03,0.01,0.04,0.01,0.06,0.02c0.14-10.44,0.2-15.76,0.34-22.48c1.31,0.76,1.97,1.14,3.28,1.9
				c-0.34,18.59-0.49,37.18-0.8,55.76c-1,0-1.5,0-2.5,0c-0.25-1.26-0.37-1.94-0.62-3.38c-0.03,0-0.05,0-0.09,0
				c-0.27,0.52-0.57,1.03-0.92,1.53c-0.35,0.51-0.76,0.95-1.23,1.33c-0.47,0.39-1.01,0.69-1.62,0.91c-0.61,0.22-1.32,0.33-2.11,0.33
				c-1.11,0-2.2-0.24-3.26-0.78s-1.99-1.41-2.81-2.79c-0.81-1.38-1.46-3.3-1.93-5.98C170.84,126.15,170.63,122.59,170.68,118.07z
				 M174.15,118.49c-0.03,2.69,0.07,5.04,0.31,7.05c0.24,2.01,0.6,3.62,1.08,4.89c0.48,1.27,1.08,2.18,1.8,2.8
				c0.72,0.63,1.55,0.92,2.49,0.94c0.7,0.01,1.34-0.13,1.91-0.43c0.58-0.3,1.09-0.68,1.55-1.15c0.46-0.47,0.85-0.98,1.18-1.53
				c0.33-0.55,0.59-1.06,0.78-1.54c0.12-7.61,0.17-12.38,0.29-21.35c-0.66-1.68-1.44-3.13-2.32-4.35c-0.88-1.22-1.84-2.04-2.89-2.42
				c-0.63-0.23-1.29-0.21-1.99,0.08c-0.7,0.29-1.35,1.05-1.96,2.3c-0.61,1.26-1.12,3.08-1.54,5.46S174.2,114.79,174.15,118.49z"/>
			<path class="st3" d="M213.16,123.94c0,2.16-0.22,4.11-0.68,5.87c-0.45,1.77-1.1,3.29-1.93,4.57c-0.83,1.28-1.85,2.27-3.03,2.97
				c-1.19,0.7-2.52,1.04-3.99,1.04c-1.51,0-2.86-0.34-4.04-1.05c-1.18-0.71-2.18-1.72-2.99-3.14c-0.81-1.41-1.42-3.19-1.83-5.4
				c-0.41-2.21-0.6-4.8-0.56-7.7c0.04-2.93,0.3-5.62,0.78-7.93c0.48-2.31,1.14-4.18,1.99-5.56c0.84-1.39,1.85-2.25,3.03-2.63
				c1.18-0.38,2.48-0.22,3.91,0.4c1.46,0.63,2.77,1.6,3.92,2.85c1.16,1.24,2.13,2.69,2.93,4.31c0.8,1.62,1.41,3.38,1.84,5.29
				C212.94,119.74,213.16,121.75,213.16,123.94z M209.75,123.44c0.01-1.8-0.14-3.44-0.43-4.93c-0.29-1.49-0.71-2.82-1.24-4
				c-0.53-1.17-1.16-2.16-1.9-2.96c-0.73-0.79-1.54-1.36-2.42-1.68c-0.88-0.32-1.69-0.33-2.44,0c-0.75,0.33-1.4,0.98-1.95,1.99
				c-0.55,1.01-0.99,2.34-1.31,3.99c-0.32,1.65-0.5,3.59-0.52,5.77c-0.03,2.15,0.1,4.05,0.39,5.68c0.28,1.63,0.7,2.96,1.24,4.01
				c0.54,1.05,1.19,1.83,1.93,2.35s1.57,0.78,2.46,0.79c0.9,0.01,1.72-0.23,2.47-0.72c0.75-0.48,1.4-1.2,1.95-2.13
				c0.55-0.94,0.98-2.09,1.29-3.46C209.59,126.78,209.75,125.22,209.75,123.44z"/>
		</g>
	</g>
	<polygon class="st4" points="103.72,57.31 15.56,108.21 36.84,62.51 125,11.61 	"/>
	<polygon class="st4" points="146.28,57.31 234.44,108.21 213.16,62.51 125,11.61 	"/>
</g>
<g id="Layer_1_copy_2" class="st0">
	<g class="st1">
		<g>
			<path class="st4" d="M36.84,134.93c5.45-14,8.2-29.01,12-43.5c1.3-0.74,1.95-1.12,3.27-1.87c5.77,12.92,9.13,26.86,13.47,40.29
				c-1.69,0.3-2.54,0.45-4.22,0.75c-1.58-4.2-2.37-6.82-3.95-12.02c-5.32,1.76-7.94,2.63-13.05,4.31
				c-1.41,5.39-2.12,7.83-3.55,11.34C39.22,134.52,38.43,134.65,36.84,134.93z M50.52,96.33c-1.32,5.81-2.57,11.74-3.77,16.82
				c-0.44,1.88-0.66,2.81-1.1,4.63c4.06-1.55,6.13-2.35,10.34-3.97c-0.5-1.64-0.75-2.46-1.25-4.07c-1.35-4.45-2.73-9.2-4.12-13.46
				C50.58,96.3,50.56,96.31,50.52,96.33z"/>
			<path class="st4" d="M70.26,129.02c-0.07-17.46-0.11-34.91-0.21-52.37c1.55-0.89,2.32-1.33,3.87-2.23
				c0.03,17.98,0.04,35.96,0.06,53.93C72.49,128.62,71.75,128.75,70.26,129.02z"/>
			<path class="st4" d="M90.52,126.39c-1.18,0.2-2.25,0.18-3.21-0.06c-0.96-0.24-1.77-0.65-2.48-1.24c-0.71-0.6-1.31-1.36-1.8-2.32
				c-0.49-0.96-0.88-2.05-1.17-3.3c-0.22-0.93-0.38-1.99-0.47-3.19c-0.09-1.2-0.14-2.54-0.13-4.04c0.04-10.28,0.06-16.26,0.1-25.83
				c1.54-0.78,2.3-1.17,3.83-1.95c-0.07,9.79-0.1,15.93-0.17,26.54c-0.02,2.4,0.14,4.3,0.47,5.75c0.37,1.64,0.99,2.82,1.84,3.59
				c0.85,0.77,1.95,1.01,3.28,0.72c1.41-0.31,2.55-1.09,3.42-2.42c0.87-1.33,1.51-3.06,1.89-5.2c0.29-1.64,0.45-3.66,0.48-6.06
				c0.1-9.6,0.21-19.19,0.32-28.79c1.51-0.77,2.26-1.15,3.75-1.91c-0.13,9.88-0.24,19.75-0.36,29.63c-0.02,1.65-0.08,3.17-0.19,4.59
				c-0.11,1.41-0.25,2.71-0.46,3.88c-0.3,1.65-0.72,3.16-1.24,4.53c-0.52,1.37-1.15,2.54-1.89,3.53c-0.75,0.99-1.61,1.77-2.57,2.38
				C92.82,125.8,91.74,126.19,90.52,126.39z"/>
			<path class="st4" d="M115.87,67.58c0.91-0.45,1.73-0.6,2.4-0.45c0.68,0.15,1.25,0.49,1.73,1.03c0.48,0.54,0.86,1.13,1.14,1.78
				c0.28,0.65,0.47,1.19,0.57,1.62c0.03-0.02,0.05-0.03,0.09-0.04c0.29-2.51,0.43-3.74,0.71-6.1c1.01-0.51,1.51-0.77,2.49-1.27
				c0,19.39,0,38.78,0,58.17c0,3.62-0.27,6.44-0.83,8.6c-0.56,2.15-1.35,3.67-2.37,4.75c-1.02,1.08-2.25,1.74-3.68,2.15
				c-1.43,0.41-3,0.58-4.72,0.58c-1.46,0-2.75-0.11-3.89-0.32c-1.14-0.22-2.03-0.48-2.67-0.81c0.01-1.15,0.02-1.82,0.03-3.36
				c0.53,0.24,1.04,0.45,1.53,0.6c0.49,0.16,1,0.29,1.53,0.39c0.53,0.1,1.06,0.17,1.61,0.2c0.55,0.04,1.16,0.04,1.82,0.02
				c2.59-0.09,4.58-0.86,5.98-2.78c1.39-1.92,2.1-5.11,2.12-10.32c0.01-2.48,0.02-3.8,0.03-6.53c-0.03,0.01-0.04,0.01-0.07,0.01
				c-0.78,2.16-1.69,3.75-2.74,4.88c-1.04,1.12-2.24,1.75-3.58,1.97c-0.62,0.1-1.28,0.07-2-0.1c-0.71-0.16-1.42-0.52-2.13-1.07
				c-0.71-0.55-1.39-1.32-2.03-2.34s-1.21-2.35-1.68-4.03c-0.48-1.68-0.86-3.74-1.13-6.22c-0.28-2.48-0.39-5.45-0.35-8.92
				c0.06-4.82,0.39-9.12,1-12.84c0.61-3.73,1.39-6.88,2.33-9.51c0.94-2.63,2.01-4.73,3.18-6.35
				C113.46,69.33,114.66,68.18,115.87,67.58z M109.59,97.61c-0.05,4.17,0.13,7.45,0.52,9.9s0.9,4.26,1.53,5.49
				c0.63,1.23,1.32,2,2.08,2.34c0.75,0.34,1.47,0.44,2.15,0.29c1.11-0.23,2.15-0.95,3.12-2.21c0.97-1.26,1.82-2.91,2.55-5
				c0.04-9.83,0.07-19.65,0.11-29.48c-0.19-0.61-0.45-1.29-0.78-2.01c-0.33-0.72-0.72-1.34-1.17-1.85
				c-0.44-0.51-0.96-0.88-1.53-1.09c-0.58-0.21-1.21-0.15-1.9,0.18c-1.04,0.5-1.96,1.43-2.77,2.78c-0.81,1.35-1.5,3.03-2.07,5.05
				c-0.57,2.02-1,4.34-1.31,6.99C109.79,91.66,109.62,94.53,109.59,97.61z"/>
		</g>
	</g>
	<g class="st1">
		<g>
			<path class="st4" d="M138.05,137.63c-1.4,0-2.09,0-3.49,0c0.1-25.36,0.11-50.73,0.17-76.09c-3.9-2.07-5.84-3.1-9.73-5.16
				c0-3.46,0-5.01,0-7.56c9.22,5.22,13.85,7.85,23.07,13.08c-0.02,2.32-0.03,3.69-0.05,6.68c-3.89-2.07-5.84-3.1-9.74-5.17
				C138.21,88.16,138.18,112.89,138.05,137.63z"/>
			<path class="st4" d="M156.96,138.39c-1.05,0-2-0.15-2.84-0.47s-1.57-0.79-2.2-1.46c-0.63-0.67-1.16-1.52-1.59-2.63
				c-0.43-1.11-0.77-2.41-1.02-3.95c-0.19-1.15-0.33-2.48-0.4-4.02c-0.08-1.53-0.11-3.28-0.1-5.27c0.07-12.54,0.14-25.07,0.21-37.61
				c1.34,0.57,2.02,0.86,3.36,1.43c-0.08,12.16-0.15,24.31-0.23,36.47c-0.02,3,0.11,5.32,0.4,7.08c0.33,2,0.87,3.42,1.62,4.42
				c0.76,1,1.73,1.45,2.91,1.47c1.26,0.02,2.27-0.45,3.05-1.48c0.78-1.03,1.35-2.48,1.69-4.46c0.26-1.52,0.4-3.48,0.43-5.99
				c0.1-11.06,0.2-22.12,0.3-33.18c1.34,0.57,2.01,0.85,3.34,1.42c-0.11,10.74-0.21,21.47-0.32,32.21
				c-0.02,1.62-0.07,3.07-0.17,4.36c-0.09,1.3-0.23,2.45-0.42,3.44c-0.27,1.4-0.64,2.62-1.11,3.68c-0.46,1.05-1.03,1.89-1.7,2.56
				c-0.67,0.67-1.44,1.15-2.3,1.48C159.02,138.23,158.04,138.39,156.96,138.39z"/>
			<path class="st4" d="M170.68,118.07c0.04-3.36,0.21-6.46,0.52-9.11c0.31-2.65,0.7-4.92,1.18-6.78c0.48-1.85,1.03-3.31,1.67-4.39
				c0.63-1.07,1.28-1.85,1.95-2.36c0.67-0.51,1.34-0.77,2.02-0.81c0.68-0.04,1.32,0.08,1.92,0.34c1.24,0.54,2.31,1.45,3.21,2.7
				c0.9,1.25,1.7,2.84,2.4,4.78c0.03,0.01,0.04,0.01,0.06,0.02c0.14-10.44,0.2-15.76,0.34-22.48c1.31,0.76,1.97,1.14,3.28,1.9
				c-0.34,18.59-0.49,37.18-0.8,55.76c-1,0-1.5,0-2.5,0c-0.25-1.26-0.37-1.94-0.62-3.38c-0.03,0-0.05,0-0.09,0
				c-0.27,0.52-0.57,1.03-0.92,1.53c-0.35,0.51-0.76,0.95-1.23,1.33c-0.47,0.39-1.01,0.69-1.62,0.91c-0.61,0.22-1.32,0.33-2.11,0.33
				c-1.11,0-2.2-0.24-3.26-0.78s-1.99-1.41-2.81-2.79c-0.81-1.38-1.46-3.3-1.93-5.98C170.84,126.15,170.63,122.59,170.68,118.07z
				 M174.15,118.49c-0.03,2.69,0.07,5.04,0.31,7.05c0.24,2.01,0.6,3.62,1.08,4.89c0.48,1.27,1.08,2.18,1.8,2.8
				c0.72,0.63,1.55,0.92,2.49,0.94c0.7,0.01,1.34-0.13,1.91-0.43c0.58-0.3,1.09-0.68,1.55-1.15c0.46-0.47,0.85-0.98,1.18-1.53
				c0.33-0.55,0.59-1.06,0.78-1.54c0.12-7.61,0.17-12.38,0.29-21.35c-0.66-1.68-1.44-3.13-2.32-4.35c-0.88-1.22-1.84-2.04-2.89-2.42
				c-0.63-0.23-1.29-0.21-1.99,0.08c-0.7,0.29-1.35,1.05-1.96,2.3c-0.61,1.26-1.12,3.08-1.54,5.46S174.2,114.79,174.15,118.49z"/>
			<path class="st4" d="M213.16,123.94c0,2.16-0.22,4.11-0.68,5.87c-0.45,1.77-1.1,3.29-1.93,4.57c-0.83,1.28-1.85,2.27-3.03,2.97
				c-1.19,0.7-2.52,1.04-3.99,1.04c-1.51,0-2.86-0.34-4.04-1.05c-1.18-0.71-2.18-1.72-2.99-3.14c-0.81-1.41-1.42-3.19-1.83-5.4
				c-0.41-2.21-0.6-4.8-0.56-7.7c0.04-2.93,0.3-5.62,0.78-7.93c0.48-2.31,1.14-4.18,1.99-5.56c0.84-1.39,1.85-2.25,3.03-2.63
				c1.18-0.38,2.48-0.22,3.91,0.4c1.46,0.63,2.77,1.6,3.92,2.85c1.16,1.24,2.13,2.69,2.93,4.31c0.8,1.62,1.41,3.38,1.84,5.29
				C212.94,119.74,213.16,121.75,213.16,123.94z M209.75,123.44c0.01-1.8-0.14-3.44-0.43-4.93c-0.29-1.49-0.71-2.82-1.24-4
				c-0.53-1.17-1.16-2.16-1.9-2.96c-0.73-0.79-1.54-1.36-2.42-1.68c-0.88-0.32-1.69-0.33-2.44,0c-0.75,0.33-1.4,0.98-1.95,1.99
				c-0.55,1.01-0.99,2.34-1.31,3.99c-0.32,1.65-0.5,3.59-0.52,5.77c-0.03,2.15,0.1,4.05,0.39,5.68c0.28,1.63,0.7,2.96,1.24,4.01
				c0.54,1.05,1.19,1.83,1.93,2.35s1.57,0.78,2.46,0.79c0.9,0.01,1.72-0.23,2.47-0.72c0.75-0.48,1.4-1.2,1.95-2.13
				c0.55-0.94,0.98-2.09,1.29-3.46C209.59,126.78,209.75,125.22,209.75,123.44z"/>
		</g>
	</g>
	<polygon class="st5" points="103.72,57.31 15.56,108.21 36.84,62.51 125,11.61 	"/>
	<polygon class="st5" points="146.28,57.31 234.44,108.21 213.16,62.51 125,11.61 	"/>
</g>
</svg>
